<svg width="600" height="600" viewBox="0 0 600 600" fill="none" xmlns="http://www.w3.org/2000/svg">
<path d="M93.75 75C62.9051 75 37.5 100.405 37.5 131.25V468.75C37.5 499.595 62.9051 525 93.75 525H506.25C537.095 525 562.5 499.595 562.5 468.75V131.25C562.5 100.405 537.095 75 506.25 75H93.75ZM93.75 112.5H506.25C516.805 112.5 525 120.695 525 131.25V150H75V131.25C75 120.695 83.1949 112.5 93.75 112.5ZM75 187.5H525V468.75C525 479.305 516.805 487.5 506.25 487.5H93.75C83.1949 487.5 75 479.305 75 468.75V187.5ZM300 225C238.09 225 187.5 275.59 187.5 337.5C187.5 399.41 238.09 450 300 450C361.91 450 412.5 399.41 412.5 337.5C412.5 275.59 361.91 225 300 225ZM300 262.5C313.944 262.5 326.795 266.508 337.939 273.047L235.547 375.439C229.008 364.295 225 351.444 225 337.5C225 295.857 258.357 262.5 300 262.5ZM364.453 299.561C370.992 310.705 375 323.556 375 337.5C375 379.143 341.643 412.5 300 412.5C286.056 412.5 273.205 408.492 262.061 401.953L364.453 299.561Z" fill="#1F2937"/>
</svg>
